<svg xmlns="http://www.w3.org/2000/svg" viewBox="0 0 140.79 30"><defs><style>.cls-1{fill:#707070;}.cls-2{fill:#97cb51;}.cls-3{fill:#c7e3a2;}.cls-4{fill:#add677;}.cls-5{fill:#9dcd5c;}.cls-6{fill:#a2d065;}.cls-7{fill:#d7ebbc;}.cls-8{fill:#d2e8b3;}.cls-9{fill:#cce5aa;}.cls-10{fill:#c2e099;}.cls-11{fill:#b7db87;}.cls-12{fill:#b2d87f;}.cls-13{fill:#a8d36e;}.cls-14{fill:#bddd90;}.cls-15{fill:#ddeec8;}.cls-16{fill:#8cc53f;}.cls-17{fill:#464646;}.cls-18{fill:#ccc;}.cls-19{fill:#dedede;}.cls-20{fill:#d3d9cc;}.cls-21{fill:#bebebe;}.cls-22{fill:#c8c8c8;}.cls-23{fill:#a1a1a1;}.cls-24{fill:#b0b0b0;}.cls-25{fill:#c3c3c3;}.cls-26{fill:#878787;}.cls-27{fill:#9a9a9a;}.cls-28{fill:#949494;}.cls-29{fill:#8e8e8e;}.cls-30{fill:#797979;}.cls-31{fill:#efefef;}.cls-32{fill:#979797;}.cls-33{fill:#9d9d9d;}.cls-34{fill:#777;}.cls-35{fill:#5a7f58;}.cls-36{fill:#53754f;}.cls-37{fill:#5a7f57;}.cls-38{fill:#55784e;}.cls-39{fill:#d0d0d0;}.cls-40{fill:#b8b8b8;}.cls-41{fill:gray;}.cls-42{fill:#a8a8a8;}.cls-43{fill:#8cc43f;}.cls-44{font-size:17.93px;fill:#fff;font-family:AkhandBengali-Bold, Akhand Bengali;font-weight:700;}</style></defs><title>icon</title><g id="Layer_1" data-name="Layer 1"><path class="cls-1" d="M5.65,15.9s0-.1.06-.15a1.08,1.08,0,0,1,1-.71h.75a1.05,1.05,0,0,1,1,1.06c0,.25,0,.49,0,.73A1.06,1.06,0,0,1,7.43,17.9H6.79a1.08,1.08,0,0,1-1.11-.8s0,0,0-.06Z"/><path class="cls-2" d="M6.36,4.36v0H8s0,0,0,.06a.45.45,0,0,1-.23,0H6.61C6.52,4.42,6.43,4.44,6.36,4.36Z"/><path class="cls-3" d="M16.57,4.33h1.11s0,0,0,.06a3.83,3.83,0,0,1-1.07,0S16.56,4.35,16.57,4.33Z"/><path class="cls-4" d="M11.18,4.33h1.11s0,0,0,.06a3.83,3.83,0,0,1-1.07,0S11.17,4.35,11.18,4.33Z"/><path class="cls-5" d="M8,4.36v0H9s0,0,0,.06A2.48,2.48,0,0,1,8,4.36Z"/><path class="cls-6" d="M9,4.36v0h1.07s0,0,0,.06A2.48,2.48,0,0,1,9,4.36Z"/><path class="cls-7" d="M19.82,4.33h1.07a0,0,0,0,1,0,.06,3.62,3.62,0,0,1-1,0S19.81,4.35,19.82,4.33Z"/><path class="cls-8" d="M19.82,4.33v0a.13.13,0,0,1-.07,0,4.59,4.59,0,0,1-1,0s0,0,0-.06Z"/><path class="cls-9" d="M18.75,4.33v0a2.15,2.15,0,0,1-1.07,0v0Z"/><path class="cls-10" d="M16.57,4.33v0a.13.13,0,0,1-.07,0,4.6,4.6,0,0,1-1,0s0,0,0-.06Z"/><path class="cls-11" d="M13.36,4.33h1.07s0,0,0,.06a3.56,3.56,0,0,1-1,0S13.35,4.35,13.36,4.33Z"/><path class="cls-12" d="M13.36,4.33v0s0,0,0,0a3.29,3.29,0,0,1-1,0s0,0,0,0v0Z"/><path class="cls-13" d="M10.11,4.36v0h1.07v0s0,0,0,0a3.65,3.65,0,0,1-1,0Z"/><path class="cls-14" d="M14.43,4.36v0H15.5v0A2.15,2.15,0,0,1,14.43,4.36Z"/><path class="cls-15" d="M20.89,4.36v0h.58v0A.63.63,0,0,1,20.89,4.36Z"/><path class="cls-16" d="M20.89,4.36h.58a.58.58,0,0,1,.49.72C21.87,6,21.8,7,21.72,7.91c-.1,1.19-.19,2.38-.29,3.57,0,.36-.19.54-.59.63-.79.18-1.58.34-2.37.5l-3.39.69c-.13,0-.18.08-.19.22-.05.35-.12.71-.19,1.06,0,.1,0,.14.09.18a1.39,1.39,0,0,1,.89,1.35,4.79,4.79,0,0,1,0,1c-.17.05-.23-.11-.34-.18s0,0,0-.05c0-.25,0-.5,0-.75a1,1,0,0,0-1.07-1.08h-.66a1,1,0,0,0-1,1c0,.23,0,.45,0,.68a1,1,0,0,0,1.06,1H14a1.34,1.34,0,0,0,.85-.21H15a.56.56,0,0,1,.28.22s0,0,0,.05a1.68,1.68,0,0,1-1.16.36,5.63,5.63,0,0,1-.82,0,1.41,1.41,0,0,1-1.12-1.4,4.25,4.25,0,0,1,.06-1.07,1.37,1.37,0,0,1,.88-1c.12,0,.14-.09.12-.2-.07-.35-.12-.69-.16-1a.21.21,0,0,0-.21-.21L7.21,12.15A1.27,1.27,0,0,1,6.76,12a.47.47,0,0,1-.22-.39c-.13-1.32-.25-2.64-.38-4C6.08,6.74,6,5.86,5.91,5a.5.5,0,0,1,.45-.63H20.89Z"/><path class="cls-1" d="M13.93,24.18H11.44a1,1,0,0,1-1.08-1.08,2.51,2.51,0,0,1,0-.55,1,1,0,0,1,.95-.76h5.18a1,1,0,0,1,1,1,2.66,2.66,0,0,1,0,.63,1,1,0,0,1-1,.8Z"/><path class="cls-1" d="M16.15,17.5A2.32,2.32,0,0,1,16,16,1,1,0,0,1,17,15h.73a1.07,1.07,0,0,1,1.06,1.06v.75a1.08,1.08,0,0,1-1.05,1H17a1.6,1.6,0,0,1-.48-.11A.49.49,0,0,1,16.15,17.5Z"/><path class="cls-1" d="M9.08,19.78a2.74,2.74,0,0,1,0-.56,1.05,1.05,0,0,1,1-.82h.73a1.07,1.07,0,0,1,1.06,1.07c0,.24,0,.48,0,.73a1.07,1.07,0,0,1-1.06,1.05c-.24,0-.48,0-.73,0a1.06,1.06,0,0,1-1.06-1.07Z"/><path class="cls-1" d="M22.22,16.5a3.83,3.83,0,0,1,0,.57,1.08,1.08,0,0,1-1,.83h-.73a1.07,1.07,0,0,1-1.06-1.07v-.72A1.07,1.07,0,0,1,20.42,15h.73a1.07,1.07,0,0,1,1.07,1.07Z"/><path class="cls-1" d="M11.93,16.51a2.83,2.83,0,0,1,0,.57,1.07,1.07,0,0,1-1,.82h-.75a1.08,1.08,0,0,1-1.05-1.06c0-.25,0-.49,0-.73A1.06,1.06,0,0,1,10.14,15h.72a1.07,1.07,0,0,1,1.07,1.08Z"/><path class="cls-1" d="M13.11,21.12a1,1,0,0,1-.57-.88c0-.27,0-.55,0-.82a1.07,1.07,0,0,1,1-1h.81a1.05,1.05,0,0,1,1,1c0,.26,0,.52,0,.79v0a7.51,7.51,0,0,1-.82.19c-.1,0-.19,0-.29.06h0a1.87,1.87,0,0,0-.22.07h-.1l-.15,0-.16,0-.12,0-.14,0h-.07l-.11,0-.13,0,0,0s0,0,0,.05.13.12.16.2A.06.06,0,0,1,13.11,21.12Z"/><path class="cls-17" d="M8.9,21.79a1.19,1.19,0,0,1,.77.22,1.44,1.44,0,0,1-.06,2A1.77,1.77,0,0,1,8,24a1.06,1.06,0,0,1-.35-.54,1.79,1.79,0,0,1,0-.83,1,1,0,0,1,1-.81Z"/><path class="cls-1" d="M20.25,23a1,1,0,0,1-.58,1.07,1.41,1.41,0,0,1-1.62-.32,1.08,1.08,0,0,1-.19-.58,2.94,2.94,0,0,1,0-.59,1,1,0,0,1,.86-.79,2.74,2.74,0,0,1,.64,0,1,1,0,0,1,.87,1Z"/><path class="cls-17" d="M17,18.44h.73a1.06,1.06,0,0,1,1.05,1.05c0,.25,0,.51,0,.77a1.06,1.06,0,0,1-1,1h-.68a1.09,1.09,0,0,1-.93-.43c0-.13.07-.13.14-.16a2.07,2.07,0,0,0,.73-.43,1.1,1.1,0,0,0,.27-1.21,1.75,1.75,0,0,0-.22-.43C17.07,18.57,17,18.52,17,18.44Z"/><path class="cls-18" d="M17,18.44a5,5,0,0,1,.31.56,1.15,1.15,0,0,1-.45,1.45,2.85,2.85,0,0,1-.6.31c-.05,0-.13,0-.12.1l0,0A.77.77,0,0,1,16,20h0c.1-.12.26-.14.39-.22a.41.41,0,0,0,.17-.6c-.07-.17-.23-.29-.26-.48a.75.75,0,0,1,.74-.31Z"/><path class="cls-19" d="M17,18.43a1,1,0,0,0-.72.33h0a4.11,4.11,0,0,0-1.05-.9s0,0,0,0a3.59,3.59,0,0,0,.37-.63,0,0,0,0,1,.06,0,2.22,2.22,0,0,1,.42.32,1.8,1.8,0,0,1,.4.33A6.22,6.22,0,0,1,17,18.43Z"/><path class="cls-19" d="M16,20a1.46,1.46,0,0,0,.18.79,12.61,12.61,0,0,1-1.25.28,0,0,0,0,1,0-.05S15,21,15,21a1,1,0,0,0,.31-.52.63.63,0,0,1,.08-.23h0Z"/><path class="cls-17" d="M16.26,18.76h0a2.43,2.43,0,0,1,.32.51.4.4,0,0,1-.14.53A1.78,1.78,0,0,1,16,20c0-.21,0-.42,0-.62A1,1,0,0,1,16.26,18.76Z"/><path class="cls-20" d="M15.65,17.18a1.76,1.76,0,0,1-.43.65L15,17.61s0-.07,0-.1a1.1,1.1,0,0,0,.26-.5.1.1,0,0,1,.08-.08c.12,0,.17.18.31.18Z"/><path class="cls-21" d="M14,20.54a.29.29,0,0,1,.22-.07s-.07.06,0,.12.38.38.59.55h-.06a.4.4,0,0,1-.15,0l0,0c-.18-.15-.33-.32-.49-.48S14,20.61,14,20.54Z"/><path class="cls-22" d="M14.9,21.07v0h0a2,2,0,0,1-.61-.55.09.09,0,0,1,0-.1,1,1,0,0,1,.29-.07c0,.05,0,.06,0,.08s0,.08,0,.11l.31.32S15,21,14.9,21.07Z"/><path class="cls-23" d="M13.58,20.61a.33.33,0,0,1,.17,0v0s0,0,0,0,0,.11.07.15.28.29.43.42a0,0,0,0,1,0,.05h-.18a3,3,0,0,1-.55-.52C13.46,20.66,13.52,20.63,13.58,20.61Z"/><path class="cls-24" d="M14.58,21.22s0,0,0,0h-.2a1.39,1.39,0,0,1-.6-.6h0a.1.1,0,0,1,.11-.05,2,2,0,0,1,.37.35.86.86,0,0,0,.34.23h0S14.6,21.19,14.58,21.22Z"/><path class="cls-25" d="M14.25,20.46a2.76,2.76,0,0,0,.57.61l0,0,0,0c-.29-.11-.44-.38-.66-.57s.07-.05.06-.1Z"/><path class="cls-26" d="M13.15,20.72l.1,0,.43.42s.09.08.07.15a.69.69,0,0,1-.35,0v0c.05,0,.06-.05,0-.09a2.5,2.5,0,0,1-.23-.23S13.1,20.8,13.15,20.72Z"/><path class="cls-27" d="M13.58,20.61c-.07.05-.05.09,0,.14s.33.33.49.5H14a2.54,2.54,0,0,1-.51-.47.08.08,0,0,1,0-.14S13.54,20.61,13.58,20.61Z"/><path class="cls-28" d="M13.47,20.64c-.05.08,0,.11,0,.15l.45.46h-.11a3.6,3.6,0,0,1-.53-.5.06.06,0,0,1,0-.07C13.36,20.63,13.42,20.65,13.47,20.64Z"/><path class="cls-29" d="M13.32,20.68l.54.57h-.11l-.39-.41c0-.05-.11-.08-.11-.16Z"/><path class="cls-30" d="M13.11,21a.77.77,0,0,1-.18-.18c0-.05,0-.08,0-.11h0c.12.1.22.22.33.33a.14.14,0,0,1,.07.13h0a.34.34,0,0,1-.22-.07Z"/><path class="cls-31" d="M16.47,17.83a2.13,2.13,0,0,1-.4-.33h.08l.36.29Z"/><path class="cls-32" d="M14.43,21.18c.05,0,.09,0,.12,0a.52.52,0,0,1-.3,0v0C14.31,21.17,14.38,21.23,14.43,21.18Z"/><path class="cls-33" d="M14.58,21.22v-.07h.18A.24.24,0,0,1,14.58,21.22Z"/><path class="cls-34" d="M13.11,21s.11,0,.07.11a.08.08,0,0,1-.07,0Z"/><path d="M9.73,7.16c.12-.18.24-.31.44-.3a.45.45,0,0,1,.46.32.47.47,0,0,1-.2.53.72.72,0,0,1-.89-.07.76.76,0,0,1-.19-.89,1,1,0,0,1,1.19-.55,1.27,1.27,0,0,1,1,1c0,.17.08.27.26.29a.46.46,0,0,1,.16.07c.08,0,.1,0,.1-.07,0-.46,0-.92,0-1.37,0-.1-.05-.11-.12-.11H7.75c-.16,0-.19-.06-.17-.2s0-.24.17-.23H13c.19,0,.18.08.18.21s0,.24-.17.22-.25,0-.37,0-.16,0-.16.16v3c0,.06,0,.16-.05.19a.63.63,0,0,1-.36,0c-.06,0,0-.08,0-.13,0-.3,0-.59,0-.89A.23.23,0,0,0,11.87,8L11.8,8c-.24-.1-.23-.1-.33.14A1.4,1.4,0,0,1,10.24,9a1.75,1.75,0,0,1-1.7-.85,3.7,3.7,0,0,1-.4-.91c0-.11,0-.14.1-.17.28-.07.28-.07.37.21a2.21,2.21,0,0,0,.55.93,1.25,1.25,0,0,0,1.35.28,1,1,0,0,0,.63-1.08.89.89,0,0,0-.79-.81A.53.53,0,0,0,9.73,7.16Z"/><path class="cls-17" d="M14.93,17.61a1,1,0,0,1-.7.25,4.93,4.93,0,0,1-.94,0,1,1,0,0,1-.82-1,4.5,4.5,0,0,1,0-1,1,1,0,0,1,1-.83,4.19,4.19,0,0,1,1,0,1,1,0,0,1,.8,1c0,.28,0,.56,0,.84-.11,0-.16-.06-.22-.11-.3-.25-.6-.49-.88-.76a.36.36,0,0,0-.43-.12.34.34,0,0,0-.1.57,7.79,7.79,0,0,0,.8.71l.35.29C14.89,17.51,15,17.53,14.93,17.61Z"/><path d="M16.87,8c.45,0,.45,0,.57.44.29,1.07.58,2.14.88,3.21,0,.14,0,.19-.14.19s-.27,0-.3-.24-.12-.42-.18-.63-.07-.13-.17-.13c-.46,0-.92,0-1.37,0-.1,0-.14,0-.16.12s-.13.41-.17.62-.11.28-.33.26-.16,0-.12-.17c.32-1.16.64-2.32.95-3.48,0-.16.11-.2.25-.19Z"/><path class="cls-18" d="M14.93,17.61c-.42-.37-.88-.7-1.27-1.11a.39.39,0,0,1,.09-.64.42.42,0,0,1,.49.11,10.5,10.5,0,0,0,1.08.92v0a1.5,1.5,0,0,1-.36.68Z"/><path class="cls-35" d="M12.36,11.4a.34.34,0,0,0-.17-.49l-.12,0c-.21-.06-.21-.06-.21.15v1c0,.05,0,.12,0,.14s-.09,0-.13-.09a1.65,1.65,0,0,0-.76-.67.2.2,0,0,1,0-.37,2.1,2.1,0,0,1,.66-.35c.09,0,.12-.06.11-.15s-.09-.07-.15-.07h-.8c-.07,0-.16,0-.16-.1s.08-.08.14-.08h1.93c.06,0,.14,0,.14.08s-.08.1-.15.1H12c-.07,0-.12,0-.12.09s0,.12.11.12a.73.73,0,0,1,.55.28.48.48,0,0,1,.07.46.34.34,0,0,1-.3.25c-.11,0-.23,0-.28-.12s0-.18.06-.24S12.28,11.29,12.36,11.4Z"/><path class="cls-35" d="M15.21,5.84v.07c0,.09,0,.16-.1.19a.17.17,0,0,1-.2,0,.21.21,0,0,1,0-.22c.06-.16,0-.24-.19-.24h-.32s-.11,0-.11-.07.06-.07.11-.07H16c.13,0,.25.08.39,0a.08.08,0,0,1,.12,0c0,.06,0,.08-.07.1s-.1.14-.1.23c0,.26,0,.52,0,.78,0,.06,0,.15-.06.16s-.07-.09-.08-.15V5.86a.56.56,0,0,0,0-.13c0-.1-.11-.12-.2-.12s-.08.08-.08.15c0,.3,0,.6,0,.91,0,0,0,.13,0,.15s-.07-.06-.11-.1a1.71,1.71,0,0,1-.11-.14c-.08-.1-.15-.11-.26,0a.51.51,0,0,1-.6,0,1.19,1.19,0,0,1-.4-.68c0-.05,0-.11,0-.13s.07.06.08.09a1.78,1.78,0,0,0,.24.5.45.45,0,0,0,.38.19.32.32,0,0,0,.32-.25A.3.3,0,0,0,15.21,5.84Z"/><path class="cls-36" d="M18.57,8.61V8c0-.1,0-.15.14-.15h.5a.43.43,0,0,1,.41.29,1.29,1.29,0,0,1,0,1,.43.43,0,0,1-.41.26h-.48c-.12,0-.14,0-.14-.14Z"/><path class="cls-36" d="M19.88,6.83c-.34,0-.34,0-.34-.35s0-.46,0-.69,0-.19.19-.18H20a.3.3,0,0,1,.3.15.32.32,0,0,1,0,.37s-.07.06,0,.12a.32.32,0,0,1,.07.42c-.06.15-.19.15-.33.15Z"/><path class="cls-37" d="M13.93,8.4a.64.64,0,0,1-.32.07c-.06,0-.11-.05-.11-.12s0-.1.06-.12.12,0,.15.06.14,0,.18,0,.09,0,.13,0a.26.26,0,0,1-.09.31l-.19.14a1.69,1.69,0,0,1,.41.23c0-.23,0-.43,0-.64s0-.16.16-.14.08,0,.09,0,0,.06-.07.06-.06.09-.06.14c0,.23,0,.45,0,.68,0,0,0,.08,0,.09s-.06,0-.08,0a1.1,1.1,0,0,0-.43-.31c-.06,0-.11,0-.11-.12s.05-.09.11-.11A.31.31,0,0,0,13.93,8.4Z"/><path class="cls-38" d="M20.36,10.06c-.43,0-.46,0-.47.33s0,.4.45.4a.38.38,0,0,1-.44,0,.77.77,0,0,1,0-.75A.38.38,0,0,1,20.36,10.06Z"/><path class="cls-39" d="M14.47,20.43a.07.07,0,0,0,.07,0l.85-.18A1,1,0,0,1,15,21,1.46,1.46,0,0,1,14.47,20.43Z"/><path class="cls-40" d="M14.57,21.14a.25.25,0,0,1-.26-.1c-.14-.16-.3-.31-.45-.46,0,0,0,0,0,0H14Z"/><path class="cls-41" d="M13.4,21.21l-.29-.3c0-.05-.11-.08-.11-.16a.25.25,0,0,1,.15,0c0,.14.18.21.26.32a.54.54,0,0,1,.14.16C13.5,21.23,13.45,21.21,13.4,21.21Z"/><path class="cls-42" d="M13.9,20.54l0,0-.11,0v0S13.85,20.54,13.9,20.54Z"/><path class="cls-34" d="M13,20.75l0,.11s-.06,0,0-.06S12.93,20.76,13,20.75Z"/><path class="cls-18" d="M14.47,20.43,15,21l-.1.07c-.1-.21-.31-.33-.46-.5S14.37,20.46,14.47,20.43Z"/><path class="cls-42" d="M14.43,21.18c0,.06-.12,0-.18,0a2.62,2.62,0,0,1-.57-.53c-.07-.08,0-.07.07-.08.17.17.34.34.5.52A.25.25,0,0,0,14.43,21.18Z"/><path class="cls-16" d="M16.85,10.5h-.59c-.08,0-.13,0-.1-.12.17-.63.35-1.26.52-1.88,0-.12.1-.1.17-.1s.15,0,.17.1c.17.63.35,1.26.52,1.89,0,.09,0,.11-.08.11Z"/><path class="cls-16" d="M11.65,11.66a2.43,2.43,0,0,0-.56-.4c-.1,0-.09-.08,0-.14a2.94,2.94,0,0,1,.46-.25c.05,0,.11,0,.11.06Z"/><path class="cls-16" d="M15.75,6.5c-.11-.08-.18-.14-.18-.27,0-.39-.08-.48-.46-.55,0,0,0,0,0-.06h.61c.08,0,.07.07.07.12Z"/><path class="cls-16" d="M18.72,8.61v-.5c0-.09,0-.14.14-.14a2.62,2.62,0,0,0,.28,0,.34.34,0,0,1,.33.25,1.1,1.1,0,0,1,0,.8.38.38,0,0,1-.39.24c-.35,0-.35,0-.35-.34Z"/><path class="cls-43" d="M19.91,6.72c-.07,0-.19,0-.21,0a1.14,1.14,0,0,1,0-.37v0c.1-.09.51,0,.55.16S20.18,6.72,19.91,6.72Z"/><path class="cls-16" d="M19.89,6.15c-.06,0-.18.06-.2-.06s-.07-.28,0-.34a.46.46,0,0,1,.41,0,.21.21,0,0,1,.09.25c0,.14-.16.15-.27.14Z"/></g><g id="Layer_2" data-name="Layer 2"><text class="cls-44" transform="translate(25.71 20)">এককশশ বববলল ককবববরর</text></g></svg>