<svg id="Layer_1" data-name="Layer 1" xmlns="http://www.w3.org/2000/svg" viewBox="0 0 300 135.67"><title>PC MOBILE</title><path d="M130,61c.34,1.86.64,3.62,1,5.38q1.22,6.64,2.44,13.31a.72.72,0,0,0,.71.69c1.8.28,3.58.64,5.37.95.78.13.86.33.83,1.53,0,.71-.47.59-.89.59H74.8c-.27,0-.53,0-.9,0a6,6,0,0,1,0-1.48,1.08,1.08,0,0,1,.73-.57c1.81-.36,3.63-.65,5.44-1a.91.91,0,0,0,.61-.55C82,73.6,83.14,67.39,84.37,61H14.67a8.63,8.63,0,0,1-1.14,0A1.73,1.73,0,0,1,12,59.27c0-.25,0-.49,0-.74V-49.74c0-1.95.51-2.45,2.47-2.45H199.93c1.94,0,2.45.51,2.45,2.48V58.56c0,1.92-.55,2.46-2.49,2.46H130ZM15.33,57.58H199V-48.86H15.33Z" transform="translate(97.62 52.2)" style="fill:#fff"/><path d="M-96.82,36.14V-1.53c0-.44.1-.91-.47-1.17-.16-.08-.23-.48-.24-.73q0-3.84,0-7.68a1,1,0,0,1,.19-.68c1-.79.31-1.86.5-2.79-1.31-1.13-.56-2.63-.67-4-.12-1.59,0-3.21,0-4.81,0-.26,0-.67.18-.75.67-.36.52-.94.53-1.49v-2.53c0-.47.13-1-.49-1.24-.15-.06-.21-.47-.22-.73,0-.95,0-1.9,0-2.86,0-.52-.14-1.09.56-1.39.13,0,.14-.48.14-.74,0-2.73-.09-5.46.1-8.17a9.74,9.74,0,0,1,9.67-8.93c4.25,0,8.5,0,12.75,0h34.48A9.87,9.87,0,0,1-29.61-42c0,6.59,0,13.18,0,19.77,0,.43-.08.85.44,1.11.18.09.26.52.26.8,0,4.6,0,9.2,0,13.81,0,.23,0,.59-.17.67-.69.37-.53,1-.53,1.56V73.19A9.82,9.82,0,0,1-36.68,83a10.85,10.85,0,0,1-3,.42q-23.46,0-46.91,0A9.87,9.87,0,0,1-96.82,73.32q0-17.8,0-35.62Zm63.56-20.77V-41.74c0-.33,0-.65,0-1a6.07,6.07,0,0,0-6-5.86c-2,0-3.92,0-5.88,0-1,0-1.19.23-1.29,1.18a3.35,3.35,0,0,1-3.54,3.19q-12.94,0-25.9,0c-2.24,0-3.47-1-3.8-3.25a1.13,1.13,0,0,0-1.3-1.12c-1.74,0-3.48,0-5.23,0-4,0-6.46,2.45-6.46,6.46v115c0,3.91,2.35,6.26,6.26,6.27,15.55,0,31.1,0,46.65,0a6.23,6.23,0,0,0,6.49-6.47C-33.31,53.56-33.26,34.47-33.26,15.37Z" transform="translate(97.62 52.2)" style="fill:#fff"/><path d="M67-28.95H95.86c.32,0,.65,0,1,0a.7.7,0,0,1,.74.78c0,.85,0,1.69,0,2.54s-.37,1.07-1.12,1.06c-1.8,0-3.59,0-5.39,0-.92,0-1.09.18-1.09,1.12Q90-6.83,90,9.8c0,1.5,0,1.52-1.47,1.48-.68,0-1.37,0-2.05,0-.94,0-1.14-.14-1.15-1.11s0-2,0-3c0-2.67,0-5.34,0-8a1.69,1.69,0,0,0-1.08-1.74Q82.52-3.36,80.72-4c-.88-.32-1.06-.12-1.24.8a5.19,5.19,0,0,1-.58,1.5c-1,1.83-1.8,3.78-3.62,5a26.9,26.9,0,0,1-3.54,2.56A17.81,17.81,0,0,1,59.43,7.18a20.7,20.7,0,0,1-8.21-4.29,26.42,26.42,0,0,1-3.95-4.53A23.51,23.51,0,0,1,45-5.77a23.92,23.92,0,0,1-.92-2.49c-.42-1.24-.79-2.49-1.25-3.7-.26-.68-.1-1,.59-1.2s1.57-.46,2.36-.66,1.32,0,1.65.93c.69,2,1.31,4,2.15,5.88A22.23,22.23,0,0,0,51.81-3.5,14.29,14.29,0,0,0,63,3,12.06,12.06,0,0,0,71.74.31c1.75-1.53,3.35-3.39,3.28-6a12.36,12.36,0,0,1,.22-1.7,10.36,10.36,0,0,0-1-6.34A11.65,11.65,0,0,0,71.08-17a8,8,0,0,0-4.15-1.56c-3.68-.31-5.51,1.21-6.9,4.35a1.11,1.11,0,0,0-.1.56c.06.32.19.63.28.95a3.89,3.89,0,0,0,.65-.63c2.1-3.36,6.23-3,8.45-.21a1.3,1.3,0,0,1,.32.73,31.92,31.92,0,0,1,0,4.15,3,3,0,0,1-1.09,1.55A7.8,7.8,0,0,1,60-5.95a8,8,0,0,1-4.45-5.32,8.29,8.29,0,0,1,.67-6,10.83,10.83,0,0,1,3.45-4,9.62,9.62,0,0,1,3.13-1.5,12.57,12.57,0,0,1,9,1,19.74,19.74,0,0,1,4.73,3.55c1,1,1.51,2.49,2.28,3.73a9.23,9.23,0,0,1,.94,4.25,1.44,1.44,0,0,0,1.08,1.36c1.16.37,2.32.78,3.48,1.16.77.26,1,.13,1-.72,0-1.2,0-2.4,0-3.6V-23.22c0-1.2-.13-1.35-1.36-1.35H37.71c-1.17,0-1.2,0-1.2-1.18,0-.82,0-1.64,0-2.46,0-.54.21-.74.7-.74H67Z" transform="translate(97.62 52.2)" style="fill:#fff"/><path d="M151,38.63c-2.06,0-2.11,0-2.72-2s-1.08-3.82-1.6-5.73l-.66-2.35c-.16-.59-.64-.59-1.12-.59H129.17c-1,0-1.15.16-1.41,1.18-.53,2-1.12,4-1.68,5.95-.26.92-.53,1.83-.78,2.75a.87.87,0,0,1-.94.73c-1,0-1.91,0-2.86,0-.69,0-.86-.3-.67-.94.57-2,1.13-3.91,1.68-5.88.84-3,1.68-6.08,2.5-9.12.54-2,1-3.94,1.56-5.91.74-2.73,1.52-5.44,2.28-8.17q.78-2.82,1.55-5.66c.46-1.7.88-3.42,1.39-5.11a1.19,1.19,0,0,1,.87-.65q4.32-.08,8.66,0a1.08,1.08,0,0,1,.81.59c.47,1.47.86,3,1.28,4.47.58,2.12,1.17,4.24,1.75,6.36.72,2.65,1.43,5.3,2.15,8,.56,2.07,1.12,4.15,1.69,6.22q.78,2.86,1.57,5.74c.59,2.15,1.18,4.29,1.78,6.44.26.92.53,1.83.79,2.74.17.62-.06,1-.73.94C152,38.62,151.49,38.63,151,38.63ZM137.1,23.81h0c2.18,0,4.36,0,6.53,0,1,0,1.21-.35.91-1.34-.58-1.92-1.13-3.85-1.67-5.78s-1-3.94-1.58-5.91c-.81-3-1.62-5.91-2.46-8.86-.08-.3-.35-.75-.58-.78a11.52,11.52,0,0,0-2.49,0c-.23,0-.5.42-.6.7-.3.92-.54,1.87-.79,2.82q-.87,3.18-1.73,6.36-.82,3-1.63,6c-.5,1.81-1,3.62-1.51,5.41-.33,1.09-.16,1.4,1,1.4C132.69,23.82,134.9,23.81,137.1,23.81Z" transform="translate(97.62 52.2)" style="fill:#fff"/><path d="M80.69,21.36c3.59,0,7.19,0,10.78,0,.66,0,1.13.09,1.11.9s-.21,1.06-1.15,1c-2.53,0-5.06,0-7.59,0-.7,0-1.07.19-1.09.95s.13,1.12,1,1.23c2.61.32,5,1.14,6.54,3.5,1.72,2.69.83,6.41-2.63,7.33a2.73,2.73,0,0,1-3.06-1.13,2.07,2.07,0,0,1,1.12-3.12,1.83,1.83,0,0,1,2.17,1,4.53,4.53,0,0,0,.51.57c.18-.26.46-.49.51-.77a3.74,3.74,0,0,0-1.61-4.07,13.8,13.8,0,0,0-3.52-1.38c-.8-.22-1,.06-1,.91,0,4.17,0,8.34,0,12.5,0,.67-.14,1.1-.9.92a.84.84,0,0,1-.5-.41c-2.06-4-5.4-6.45-9.42-8.14a1.37,1.37,0,0,1-.63-.47,2.79,2.79,0,0,1,.78-3.26,29.36,29.36,0,0,1,7.66-3.92c.94-.29,1.12-.64.94-1.57s-.8-.68-1.35-.68H69.82c-.49,0-1,.06-1.2-.58-.28-.89.09-1.36,1.12-1.36ZM80.75,32h0c0-1.25,0-2.5,0-3.75,0-.68-.31-.9-.93-.7a6.65,6.65,0,0,0-1.2.51c-1.56.92-3.13,1.83-4.66,2.81-.59.39-.47.81.19,1.13A12.24,12.24,0,0,1,76,33c1.31,1,2.56,2,3.85,3a3.12,3.12,0,0,0,.7.29,3.42,3.42,0,0,0,.18-.68C80.76,34.39,80.75,33.19,80.75,32Z" transform="translate(97.62 52.2)" style="fill:#fff"/><path d="M126.62-22.35c0,1.85,0,3.7,0,5.55a2.53,2.53,0,0,1-.39.86,3.16,3.16,0,0,1-.83-.52c-.81-1-1.56-2-2.37-3a.85.85,0,0,0-1.41-.07c-1.52,1.57-5.22,1.47-7,.11a12.93,12.93,0,0,1-3.77-5.23c-.36-.81-.59-1.69-.87-2.54-.18-.54-.09-1,.51-1.18s.77.35.9.81a15.61,15.61,0,0,0,2.72,5.6,4.73,4.73,0,0,0,4.26,2.13,3.69,3.69,0,0,0,3.29-2.85,3.66,3.66,0,0,0-1.08-3.48,1.91,1.91,0,0,0-.4-.28c-.66-.32-.85-.18-.89.55a3.18,3.18,0,0,1-.26,1.32,1.85,1.85,0,0,1-2.55.69,2.31,2.31,0,0,1-.85-2.74c.77-1.59.2-2.5-1.61-2.52-1.42,0-2.83,0-4.24,0-.64,0-1-.27-.84-.88s.34-1,1.07-.74a3.14,3.14,0,0,0,1,.08h16.5a2.81,2.81,0,0,1,.65,0,4.86,4.86,0,0,0,3.76,0,1,1,0,0,1,.79.05,1.13,1.13,0,0,1,.56.69.87.87,0,0,1-.48.71c-1.24.28-1.43,1.14-1.42,2.22,0,3.16,0,6.32.06,9.47,0,.25,0,.57-.11.71a1.49,1.49,0,0,1-.89.53c-.2,0-.46-.42-.6-.7a2,2,0,0,1,0-.73V-27.4A1.82,1.82,0,0,0,127-29a1.35,1.35,0,0,0-.38,1c0,1.88,0,3.76,0,5.64Zm-1.53-2h0c0-1.25,0-2.5,0-3.75,0-.62-.21-1-.88-1-2,0-4,0-5.95,0-.19,0-.39.2-.59.31.19.15.35.38.56.45a3.36,3.36,0,0,0,.9,0,3.47,3.47,0,0,1,2.4,1,4.9,4.9,0,0,1,1.63,4.63,2.24,2.24,0,0,0,1,2.36,3.24,3.24,0,0,0,.7.34,3.07,3.07,0,0,0,.23-.73C125.1-21.89,125.09-23.12,125.09-24.34Z" transform="translate(97.62 52.2)" style="fill:#fff"/><path d="M155.32,3.37V-4c0-1.11.17-1.27,1.29-1.27,1.77,0,3.54-.06,5.31,0a5.31,5.31,0,0,1,4.71,2.6,7.7,7.7,0,0,1,1.05,3.9,28.44,28.44,0,0,1-.16,4.8A11.69,11.69,0,0,1,166.07,10a4.57,4.57,0,0,1-4,1.95c-1.9.06-3.81,0-5.71,0-.8,0-1-.43-1-1.14,0-2.48,0-5,0-7.43ZM166,3.21l-.17-.06c-.08-1-.1-2.06-.25-3.08a3.92,3.92,0,0,0-3.85-3.63c-1.17,0-2.34,0-3.51,0-.67,0-1,.28-1,1q0,6,0,12c0,.62.25.92.86.92,1.14,0,2.29,0,3.43,0a3.58,3.58,0,0,0,3.55-2.62C165.51,6.24,165.71,4.71,166,3.21Z" transform="translate(97.62 52.2)" style="fill:#fff"/><path d="M166-22.51c0-1.85,0-3.7,0-5.55,0-1,.25-1.22,1.2-1.23,1.33,0,2.67,0,4,0s2.73.42,3.33,1.88a3.6,3.6,0,0,1-.57,3.9c-.51.58-.47.86.12,1.35,1.3,1.09,1.28,2.54.86,4a3.06,3.06,0,0,1-3,2.21c-1.68.12-3.37,0-5.06,0-.66,0-.89-.35-.88-1C166-18.75,166-20.63,166-22.51Zm4,5.34H171c2.2.07,2.89-1.3,2.55-3.26a1.45,1.45,0,0,0-1.24-1.35c-1.26-.15-2.53-.22-3.79-.33-.79-.06-1.08.35-1.07,1.08,0,1,0,1.91,0,2.86,0,.76.31,1,1,1C168.93-17.19,169.42-17.17,169.91-17.17ZM169.78-28h0c-.46,0-.92,0-1.39,0a.81.81,0,0,0-.95.86c0,.95,0,1.91,0,2.86a.81.81,0,0,0,.92.89c.93,0,1.85,0,2.77,0a2.11,2.11,0,0,0,2.16-2.35A2.09,2.09,0,0,0,171.17-28C170.71-28,170.24-28,169.78-28Z" transform="translate(97.62 52.2)" style="fill:#fff"/><path d="M103.27,4.74c.81.36,1.44.59,2,.9s1,.63,1.44.92a6.51,6.51,0,0,0,.77.31,2.94,2.94,0,0,0,.21-.74c0-2,0-3.92,0-5.88,0-1.45.87-2.06,2.26-1.49a.75.75,0,0,1,.44.57.72.72,0,0,1-.53.47c-1,0-1,.57-1,1.34,0,2.67,0,5.33,0,8a3.3,3.3,0,0,1-.25.89,2.94,2.94,0,0,1-.78-.58,10.46,10.46,0,0,0-5.13-3.73c-.6-.23-1-.51-1-1.19s.44-.9,1-1.16a14.9,14.9,0,0,0,2.08-1.22c.21-.15.22-.59.32-.9a3.19,3.19,0,0,0-.89.16c-1.25.65-2.62.6-3.27-.31a1.71,1.71,0,0,1-.14-1.4,1.3,1.3,0,0,1,1.07-.64,1.73,1.73,0,0,1,1.1.85c.37.7.58.84,1.2.37a5.25,5.25,0,0,0,.76-.73c.55-.63,1-.55,1.39.23a2.63,2.63,0,0,1-.42,2.9,9.6,9.6,0,0,1-1.58,1.38C104,4.27,103.7,4.45,103.27,4.74Z" transform="translate(97.62 52.2)" style="fill:#fff"/><path d="M169.87,23.17c0,.35,0,.71,0,1.06.09,2.31,1.06,3,3.48,2.76.19,0,.38-.16.55-.13a3.59,3.59,0,0,1,.74.3c-.17.23-.32.63-.53.68-2.9.58-5.21.13-5.36-3.67a21.24,21.24,0,0,1,.12-3.09c.21-2.06,1.34-3,3.42-3a8,8,0,0,1,1.7.17c.24.05.41.38.61.59-.26.12-.52.35-.78.35-.54,0-1.08-.15-1.62-.14a2,2,0,0,0-2.15,1.78,8.21,8.21,0,0,0-.18,1.21C169.84,22.41,169.87,22.79,169.87,23.17Z" transform="translate(97.62 52.2)" style="fill:#fff"/><path d="M-62.72,41.13c-2.51,0-5,0-7.52,0A2,2,0,0,1-72,40.32a4.45,4.45,0,0,1,.13-4.9,2.92,2.92,0,0,1,2.26-1c4.65,0,9.31,0,14,0a2.89,2.89,0,0,1,3,3.12A5.53,5.53,0,0,1-53,39.82a2.19,2.19,0,0,1-2.32,1.35C-57.82,41.05-60.27,41.13-62.72,41.13Z" transform="translate(97.62 52.2)" style="fill:#fff"/><path d="M-86.08,19.53c0-2.59,1.33-4,3.74-4,3.32,0,4.51,1,4.56,3.78.06,3.08-1.1,4.56-4.27,4.41C-84.88,23.55-86.08,22.44-86.08,19.53Z" transform="translate(97.62 52.2)" style="fill:#fff"/><path d="M-39.52,19.64v1a2.88,2.88,0,0,1-2.81,3,20.65,20.65,0,0,1-2.36,0,2.93,2.93,0,0,1-2.8-2.85c0-.78,0-1.57,0-2.36a3,3,0,0,1,2.92-2.92c.65,0,1.31,0,2,0a3,3,0,0,1,3.11,3.16Z" transform="translate(97.62 52.2)" style="fill:#fff"/><path d="M-76.48,29a11.72,11.72,0,0,1,.59-2.47,2.88,2.88,0,0,1,2.82-1.6,9.8,9.8,0,0,1,2.66.21A2.72,2.72,0,0,1-68.26,28c0,.65,0,1.31,0,2a2.72,2.72,0,0,1-2.19,2.94A8.79,8.79,0,0,1-74,33a2.92,2.92,0,0,1-2.33-3.19c0-.24,0-.49,0-.73Z" transform="translate(97.62 52.2)" style="fill:#fff"/><path d="M-48.2,41.13h-1.19a2.08,2.08,0,0,1-2-1.35,4.38,4.38,0,0,1,0-3.58,3.78,3.78,0,0,1,1.66-1.55,3.7,3.7,0,0,1,4.26,1.16,4,4,0,0,1-.41,4.75C-46.6,41.43-47.5,41-48.2,41.13Z" transform="translate(97.62 52.2)" style="fill:#fff"/><path d="M-76.88,41.11h-.73c-1.84,0-2.68-.88-2.77-2.76a3.6,3.6,0,0,1,1.48-3.55c1.56-1,4.44-.47,5.05,1.28a4.84,4.84,0,0,1-.24,4.16,1.54,1.54,0,0,1-1.73.88,6.24,6.24,0,0,0-1.06,0Zm-.05-.75c2.16,0,2.54-.39,2.55-2.64,0-1.49-.88-2.29-2.5-2.29s-2.54.84-2.54,2.28C-79.42,39.89-79,40.36-76.93,40.36Z" transform="translate(97.62 52.2)" style="fill:#fff"/><path d="M-69.28,2.61a1.51,1.51,0,0,0-.29.13c-.38.22-.76.44-1.12.67-.15.1-.12.2,0,.27a3.21,3.21,0,0,1,.45.24c.32.23.62.48.93.72a.46.46,0,0,0,.16.07.49.49,0,0,0,0-.16V3.68h0v-.9C-69.06,2.62-69.14,2.57-69.28,2.61Z" transform="translate(97.62 52.2)" style="fill:#fff"/><path d="M-54.13,0c-.13-.48-.25-.95-.38-1.42-.19-.71-.39-1.42-.59-2.13,0-.08-.08-.18-.14-.19a3,3,0,0,0-.6,0s-.12.1-.14.16c-.07.23-.13.46-.19.68l-.42,1.53L-57,.08c-.12.43-.23.87-.36,1.3-.08.26,0,.34.24.34h3.16c.24,0,.29-.08.22-.32C-53.86.94-54,.47-54.13,0Z" transform="translate(97.62 52.2)" style="fill:#fff"/><path d="M-58.86-9.45a.54.54,0,0,0,.23.57.89.89,0,0,0,.17.08A.64.64,0,0,0-58.4-9v-.88h0c0-.3,0-.6,0-.9s-.05-.24-.21-.24H-60c-.05,0-.1,0-.14.08a.45.45,0,0,0,.13.11.79.79,0,0,0,.22,0,.79.79,0,0,1,.57.25A1.18,1.18,0,0,1-58.86-9.45Z" transform="translate(97.62 52.2)" style="fill:#fff"/><path d="M-42-14.59H-83.44c-1.44,0-2.11.85-1.94,2.29.41,3.43.79,6.86,1.16,10.3.24,2.32.48,4.65.66,7,.1,1.23.46,1.85,1.69,2.16,1.85.45,3.72.83,5.58,1.21,3.26.66,6.52,1.27,9.77,2a1.34,1.34,0,0,1,.83.83,25.81,25.81,0,0,1,.5,2.65A1.08,1.08,0,0,1-65.72,15a8,8,0,0,0-1.59,1.7A9.2,9.2,0,0,0-68,18.39a6.24,6.24,0,0,1-.28-.59,3.13,3.13,0,0,0-3.18-2.3c-.6,0-1.21.05-1.8,0a3.17,3.17,0,0,0-3,3.11,6.53,6.53,0,0,1,0,1.71,3.07,3.07,0,0,0,3.2,3.32c.66,0,1.31,0,2,0a3,3,0,0,0,2.84-2.19,4.88,4.88,0,0,1,.22-.51,12.24,12.24,0,0,0,1.6,2.49,13.13,13.13,0,0,0,2.68,1.53,6.55,6.55,0,0,0-.92.41,5.64,5.64,0,0,0-1.31.93c-.77.86-.63,4.62,0,5.58,1,1.5,3.87,1.5,5.47,1.14,1.08-.24,2.13-.67,3.22-.89a2.26,2.26,0,0,1,1.25.31c.52.23,1,.74,1.48.8a12.8,12.8,0,0,0,3.33,0,2.59,2.59,0,0,0,2-1.62,6.69,6.69,0,0,0,.17-4.48,2.71,2.71,0,0,0-2-2,12.43,12.43,0,0,0-2-.18,1.81,1.81,0,0,1-2-1.34c.31,0,.59-.06.87-.06.9,0,1.8,0,2.69-.05A2.4,2.4,0,0,0-49.2,21.2a16.93,16.93,0,0,0,0-3,2.85,2.85,0,0,0-3-2.67c-.57,0-1.14,0-1.71,0a3.15,3.15,0,0,0-3.33,3.18c0,.78.06,1.57.09,2.36,0,.28,0,.56,0,.92-.74-.16-.81-.61-.78-1.13,0-.76.06-1.52.07-2.28a3.47,3.47,0,0,0-1.63-3.29c-1.3-.68-1.27-1.57-1-2.69a3.4,3.4,0,0,1,.25-1.19,2.3,2.3,0,0,1,1.15-1c3.6-.76,7.21-1.42,10.82-2.14,1.7-.34,3.4-.73,5.09-1.14a2,2,0,0,0,1.67-1.86c.24-3.12.5-6.24.73-9.36.21-2.86.42-5.71.57-8.56C-40.08-14.1-40.61-14.59-42-14.59ZM-54.32,30.93c1.61-1.15,1.94-2.24,1.23-4.1-.15-.39-.06-.62.39-.68a2.32,2.32,0,0,1,2.9,2.42q0,.57,0,1.14c0,1.11-.36,2.13-1.58,2.33a16.24,16.24,0,0,1-3.12.07c-.24,0-.46-.29-.78-.51C-54.88,31.33-54.6,31.14-54.32,30.93Zm-1.2-3.71c.4.59.41,1.32,0,1.54A.54.54,0,0,1-56,28.7C-56.3,28.4-56,27.62-55.52,27.22Zm-8.74-31.3A.3.3,0,0,1-64-4.23a.42.42,0,0,1,.27.2c.09.17.14.2.29.09l.18-.18c.13-.15.25-.13.33.06a.64.64,0,0,1-.1.7,2.43,2.43,0,0,1-.38.33l-.24.16.49.22c.12.06.23.15.35.22l.18.07a.48.48,0,0,0,.05-.17c0-.48,0-1,0-1.42s.21-.49.55-.36a.21.21,0,0,1,.11.14A.19.19,0,0,1-62-4c-.24,0-.25.13-.25.32q0,1,0,1.92a.83.83,0,0,1-.06.21c-.06,0-.15-.07-.19-.13a2.46,2.46,0,0,0-1.23-.9c-.15-.06-.24-.12-.24-.29s.1-.22.22-.28a2.72,2.72,0,0,0,.5-.29s.06-.14.08-.22a1.3,1.3,0,0,0-.21,0c-.31.16-.64.15-.79-.07A.45.45,0,0,1-64.26-4.08ZM-66.49,1.6h-1.83c-.17,0-.26,0-.26.23s0,.27.24.3A2,2,0,0,1-66.77,3a1.13,1.13,0,0,1-.63,1.76.66.66,0,0,1-.74-.27.5.5,0,0,1,.27-.75.44.44,0,0,1,.52.24.58.58,0,0,0,.13.14c0-.06.11-.12.12-.18a.91.91,0,0,0-.39-1,3.06,3.06,0,0,0-.84-.33c-.2-.06-.25,0-.25.22,0,1,0,2,0,3,0,.16,0,.26-.21.22a.17.17,0,0,1-.12-.1A4.26,4.26,0,0,0-71.17,4a.36.36,0,0,1-.15-.12.67.67,0,0,1,.19-.78,6.67,6.67,0,0,1,1.84-.94c.23-.07.27-.16.23-.38s-.2-.16-.33-.16c-.77,0-1.53,0-2.3,0-.11,0-.24,0-.29-.14s0-.33.27-.33h5.23c.16,0,.27,0,.26.21S-66.27,1.6-66.49,1.6Zm1.2-11.51h-1.29c-.22,0-.26,0-.26.27v8c0,.36,0,.36-.36.36a4,4,0,0,0-.49,0c-.22,0-.27,0-.27-.27v-.72c0-.65,0-1.29,0-1.93a.4.4,0,0,0-.26-.42c-.28-.12-.56-.24-.85-.34s-.25,0-.29.19a1.58,1.58,0,0,1-.14.36,3.18,3.18,0,0,1-.87,1.21,5.6,5.6,0,0,1-.86.61,4.24,4.24,0,0,1-3,.32,5,5,0,0,1-2-1,6.52,6.52,0,0,1-1-1.09,6.34,6.34,0,0,1-.54-1,6.13,6.13,0,0,1-.22-.6c-.1-.3-.19-.6-.3-.89s0-.25.14-.29l.57-.16c.22-.06.31,0,.39.22.17.48.32,1,.52,1.42a5.65,5.65,0,0,0,.53.84,3.44,3.44,0,0,0,2.68,1.56,2.88,2.88,0,0,0,2.11-.64,1.85,1.85,0,0,0,.79-1.46,2.76,2.76,0,0,1,.06-.4,2.58,2.58,0,0,0-.25-1.53,3,3,0,0,0-.76-.78,1.9,1.9,0,0,0-1-.37,1.47,1.47,0,0,0-1.66,1,.22.22,0,0,0,0,.14,1.8,1.8,0,0,0,.06.22.57.57,0,0,0,.16-.15,1.21,1.21,0,0,1,2,0,.33.33,0,0,1,.08.18,8.34,8.34,0,0,1,0,1,.77.77,0,0,1-.26.37,1.89,1.89,0,0,1-2,.28,2,2,0,0,1-1.07-1.28,2,2,0,0,1,.16-1.44,2.74,2.74,0,0,1,.83-1,2.39,2.39,0,0,1,.76-.35,3,3,0,0,1,2.15.23,4.56,4.56,0,0,1,1.14.86,4.94,4.94,0,0,1,.55.89,2.3,2.3,0,0,1,.23,1,.33.33,0,0,0,.25.33l.84.28c.19.06.23,0,.24-.17V-9.59c0-.29,0-.32-.33-.32H-79.41c-.28,0-.29,0-.29-.29s0-.39,0-.59,0-.17.17-.18h14.34a.17.17,0,0,1,.18.19c0,.2,0,.4,0,.61S-65.11-9.91-65.29-9.91Zm7.55,34.47c.24.18.45.4.69.58a1.22,1.22,0,0,1,.32,1.59,13.6,13.6,0,0,0-.48,2.1,2.29,2.29,0,0,1-.17.78A.85.85,0,0,1-58,30a.81.81,0,0,1-.49-.53,8,8,0,0,1,0-1.3,2.72,2.72,0,0,0-2.07-2.85,6.53,6.53,0,0,1-.7-.35l0-.3c.64-.26,1.29-.47,1.9-.77C-58.59,23.44-58.25,24.18-57.74,24.56ZM-59,18a14.77,14.77,0,0,1,0,2.42,10.22,10.22,0,0,1-1-.64c-.63-.52-1.23-1.08-1.86-1.6a1.16,1.16,0,0,0-1.75.06,1.11,1.11,0,0,0,.17,1.66c.81.77,1.69,1.46,2.5,2.22a3.34,3.34,0,0,1,.46.78,2.78,2.78,0,0,1-.85.38c-1,0-2,.05-2.94,0a2.29,2.29,0,0,1-2.08-1.88,15.94,15.94,0,0,1-.13-3,2.64,2.64,0,0,1,3-2.73h1.55A2.76,2.76,0,0,1-59,18Zm-1.9-26.68a3.08,3.08,0,0,1-.91-1.26c-.08-.19-.14-.4-.21-.61s0-.24.13-.28.18.08.21.19A3.78,3.78,0,0,0-61-9.28a1.11,1.11,0,0,0,1,.51.88.88,0,0,0,.79-.69.87.87,0,0,0-.26-.83l-.09-.07c-.16-.08-.21,0-.22.13a.68.68,0,0,1-.06.32.45.45,0,0,1-.61.17.56.56,0,0,1-.21-.66c.19-.38,0-.6-.38-.61h-1c-.16,0-.23-.07-.21-.22s.09-.23.26-.17a.89.89,0,0,0,.23,0h4a.86.86,0,0,1,.16,0,1.17,1.17,0,0,0,.9,0,.21.21,0,0,1,.19,0,.32.32,0,0,1,.14.17.24.24,0,0,1-.12.17c-.3.07-.34.27-.34.53,0,.76,0,1.52,0,2.28,0,.06,0,.14,0,.17a.42.42,0,0,1-.22.13s-.11-.11-.14-.17a.53.53,0,0,1,0-.18c0-.78,0-1.56,0-2.33a.44.44,0,0,0-.68-.38.3.3,0,0,0-.09.23c0,.46,0,.91,0,1.36h0c0,.44,0,.89,0,1.33,0,.07-.06.14-.09.21a1,1,0,0,1-.2-.12c-.2-.24-.38-.49-.57-.72a.21.21,0,0,0-.34,0A1.46,1.46,0,0,1-60.92-8.67Zm9.09,14h-.34c-.49,0-.5,0-.65-.47s-.26-.92-.38-1.38c-.06-.18-.11-.37-.16-.56s-.16-.14-.27-.14h-3.79c-.25,0-.28,0-.34.28-.13.48-.27,1-.4,1.43-.06.22-.13.44-.19.66a.21.21,0,0,1-.23.18h-.68c-.17,0-.21-.08-.17-.23.14-.47.28-.94.41-1.41l.6-2.19C-58.29,1-58.17.5-58,0c.18-.65.37-1.3.55-2,.13-.45.25-.91.38-1.36s.21-.82.33-1.23a.27.27,0,0,1,.21-.15c.69,0,1.39,0,2.08,0a.3.3,0,0,1,.2.15c.11.35.2.71.3,1.07l.42,1.53c.18.64.35,1.28.52,1.91s.27,1,.41,1.5.25.92.37,1.38.29,1,.43,1.55c.06.22.13.43.19.65S-51.67,5.28-51.83,5.28Zm3.63-7.83a2.89,2.89,0,0,1-.35.94,1.1,1.1,0,0,1-1,.47c-.46,0-.91,0-1.37,0-.19,0-.25-.1-.25-.27,0-.6,0-1.19,0-1.79h0V-5c0-.27,0-.31.31-.31s.85,0,1.27,0a1.26,1.26,0,0,1,1.13.63,1.79,1.79,0,0,1,.26.93A7.46,7.46,0,0,1-48.2-2.55Zm1.58,5.23c-.69.15-1.25,0-1.29-.88,0-.24,0-.49,0-.74A.72.72,0,0,1-47,.34a1.81,1.81,0,0,1,.4,0c.06,0,.1.09.15.14a.46.46,0,0,1-.19.08c-.13,0-.26,0-.39,0a.47.47,0,0,0-.51.43,2.5,2.5,0,0,0,0,.29v.53c0,.55.26.73.84.66,0,0,.09,0,.13,0a1.34,1.34,0,0,1,.18.07C-46.53,2.58-46.56,2.67-46.62,2.68Zm.19-11a.72.72,0,0,1-.72.53c-.41,0-.81,0-1.22,0-.16,0-.21-.08-.21-.23v-2.69c0-.23.06-.3.29-.3h1a.76.76,0,0,1,.8.45.86.86,0,0,1-.14.94c-.12.14-.11.21,0,.32A.84.84,0,0,1-46.43-8.37Z" transform="translate(97.62 52.2)" style="fill:#fff"/><path d="M-48-9.63h.67a.5.5,0,0,0,.52-.56.51.51,0,0,0-.51-.54H-48c-.15,0-.23.06-.23.21v.68A.2.2,0,0,0-48-9.63Z" transform="translate(97.62 52.2)" style="fill:#fff"/><path d="M-47-9.24c-.31,0-.61-.06-.92-.08s-.25.08-.25.26,0,.46,0,.68.08.25.25.25h.61c.53,0,.69-.31.62-.78A.35.35,0,0,0-47-9.24Z" transform="translate(97.62 52.2)" style="fill:#fff"/><path d="M-48.67-4a.93.93,0,0,0-.92-.87c-.28,0-.57,0-.85,0s-.23.07-.23.24v2.88c0,.15.06.22.2.22s.55,0,.83,0a.85.85,0,0,0,.85-.63,9.84,9.84,0,0,0,.22-1.08h0C-48.63-3.5-48.63-3.75-48.67-4Z" transform="translate(97.62 52.2)" style="fill:#fff"/></svg>