<svg id="Layer_1" data-name="Layer 1" xmlns="http://www.w3.org/2000/svg" viewBox="0 0 55 55"><title>phonetic</title><path d="M38.6,2A14.42,14.42,0,0,1,53,16.43V38.62A14.43,14.43,0,0,1,38.6,53H16.4A14.43,14.43,0,0,1,2,38.62V16.43A14.42,14.42,0,0,1,16.4,2H38.6m0-2H16.4A16.4,16.4,0,0,0,0,16.43V38.62A16.41,16.41,0,0,0,16.4,55H38.6A16.41,16.41,0,0,0,55,38.62V16.43A16.4,16.4,0,0,0,38.6,0Z" transform="translate(0 -0.03)" style="fill:#86d32d"/><path d="M46.23,27.37V25.09H44.78v3.09A2.62,2.62,0,0,0,43,27.37H24.66L17.85,9H15.33L7.41,28.56H9.49l3-7.5h7.81L23,28.56h.2v.06H39.12v9.87c0,1.09,0,2,.1,2.75L35.64,38a6.37,6.37,0,0,0,.66-3,5.54,5.54,0,0,0-1-3.37,3.33,3.33,0,0,0-2.85-1.31,3.44,3.44,0,0,0-2.54.92A3.32,3.32,0,0,0,29,33.77a4.5,4.5,0,0,0,.22,1.4,5.21,5.21,0,0,0,.52,1.19L31,35.85a4.76,4.76,0,0,1-.43-2,2.37,2.37,0,0,1,.5-1.56,2.08,2.08,0,0,1,3.21.36,5,5,0,0,1,.51,2.4,4.7,4.7,0,0,1-1,3.11,3.74,3.74,0,0,1-3,1.18,4.2,4.2,0,0,1-3.78-2,12,12,0,0,1-1.58-5.52L24.14,32A11.69,11.69,0,0,0,26,38.3a5.51,5.51,0,0,0,4.8,2.38,5.38,5.38,0,0,0,4.06-1.55l4,3.6h1.77V28.62H42.9a2.1,2.1,0,0,1,.92.19,4.7,4.7,0,0,1,.89.54V42.73h1.52V28.62h2.31V27.37ZM13,19.48l3.46-9,3.22,9Z" transform="translate(0 -0.03)" style="fill:#86d32d"/></svg>