<svg id="Layer_1" data-name="Layer 1" xmlns="http://www.w3.org/2000/svg" viewBox="0 0 242.28 66.78"><title>platforms</title><path d="M41.48,32.85H58.77c1.17,0,1.17,0,1.17,1.14q0,12.69,0,25.38a4.47,4.47,0,0,1-4.75,4.77c-.62,0-1.23,0-1.85,0s-.77.23-.77.8q0,4.13,0,8.25a4.13,4.13,0,0,1-3.1,4,4.21,4.21,0,0,1-4.75-2A4.11,4.11,0,0,1,44.16,73c0-2.67,0-5.33,0-8,0-.66-.19-.91-.87-.89-1.22.05-2.45,0-3.68,0-.63,0-.83.21-.83.83,0,2.75,0,5.5,0,8.25a4.18,4.18,0,0,1-5.57,3.89A4.3,4.3,0,0,1,30.4,73c0-2.51,0-5,0-7.52,0-1.36,0-1.35-1.41-1.37a11.92,11.92,0,0,1-2.31-.1A4.4,4.4,0,0,1,23,59.69c0-8.64,0-17.29,0-25.94,0-.81.37-.91,1-.9Z" transform="translate(-13.23 -10.57)" style="fill:#fff"/><path d="M41.4,31.63H24.19c-1.38,0-1.45-.07-1.3-1.46a16.67,16.67,0,0,1,7.4-12.28,8.1,8.1,0,0,1,1.29-.79c.6-.28.59-.61.3-1.13-.77-1.37-1.51-2.77-2.25-4.15-.21-.39-.44-.82.07-1.12s.84.06,1.08.48c.78,1.43,1.57,2.85,2.33,4.29a.67.67,0,0,0,1,.39,19.69,19.69,0,0,1,14.67,0c.53.2.81.12,1.08-.4.61-1.21,1.29-2.4,1.94-3.59.11-.21.23-.42.35-.63.23-.4.5-.84,1.05-.56s.33.76.11,1.17c-.6,1.13-1.21,2.26-1.83,3.38-.79,1.43-.77,1.4.6,2.3a16.74,16.74,0,0,1,8,13c.08,1,0,1.08-1.05,1.08ZM33,21.86a1.38,1.38,0,0,0-1.43,1.39A1.41,1.41,0,0,0,33,24.7a1.45,1.45,0,0,0,1.5-1.44A1.42,1.42,0,0,0,33,21.86Zm16.89,0a1.43,1.43,0,0,0-1.47,1.38,1.45,1.45,0,0,0,1.48,1.46,1.42,1.42,0,0,0,1.41-1.43A1.39,1.39,0,0,0,49.93,21.86Z" transform="translate(-13.23 -10.57)" style="fill:#fff"/><path d="M69.72,44.92c0,2.85,0,5.71,0,8.56a4.16,4.16,0,0,1-8.29.62,7.3,7.3,0,0,1-.09-1q0-8.16,0-16.32a4.28,4.28,0,0,1,2.32-4.16,4.14,4.14,0,0,1,6.07,3.62C69.74,39.1,69.72,42,69.72,44.92Z" transform="translate(-13.23 -10.57)" style="fill:#fff"/><path d="M13.24,44.9c0-2.85,0-5.71,0-8.56a4.11,4.11,0,0,1,3.94-4.22,4.2,4.2,0,0,1,4.36,3.63,8.17,8.17,0,0,1,.08,1.11q0,8,0,16.08a5.11,5.11,0,0,1-.69,2.83,4.17,4.17,0,0,1-7.7-2.15C13.23,50.71,13.24,47.81,13.24,44.9Z" transform="translate(-13.23 -10.57)" style="fill:#fff"/><path d="M145.59,10.65A14.18,14.18,0,0,0,140,13a14.76,14.76,0,0,0-6.44,8.57,8.6,8.6,0,0,0-.53,3.5c0,.87.08,1.17.17,1.28s.27.16,1.24.19a4.54,4.54,0,0,0,2-.19,11.17,11.17,0,0,0,5.54-3,15.06,15.06,0,0,0,5.09-11.67C147.07,10.52,147,10.47,145.59,10.65Z" transform="translate(-13.23 -10.57)" style="fill:#fff"/><path d="M144.85,26.48a39.69,39.69,0,0,0-7.58,2c-2.84,1.11-2.76,1.08-3.33,1.08a16,16,0,0,1-4.37-1.36c-.88-.34-1.93-.7-2.32-.8L125.57,27a10.9,10.9,0,0,0-1.9-.35,4.23,4.23,0,0,0-1.72.08c-.44.09-1.37.28-2.06.4a11.72,11.72,0,0,0-3.49,1.1c-3.74,1.83-6.36,4.7-8.27,9.11a34.91,34.91,0,0,0-1.42,4.09,28.7,28.7,0,0,0,0,10.62,5.81,5.81,0,0,1,.16,1,4.2,4.2,0,0,0,.16,1c.08.33.37,1.47.63,2.52a26.93,26.93,0,0,0,1.5,4.44,28.88,28.88,0,0,0,3,6.07c1,1.59,3.07,4.41,3.9,5.46a22.1,22.1,0,0,0,3,3.07,10.84,10.84,0,0,0,3.21,1.56A7.19,7.19,0,0,0,126.1,77a18.63,18.63,0,0,0,3.13-1.12,10.7,10.7,0,0,1,2.14-.72l1.8-.38a5.61,5.61,0,0,1,2.46-.07c.3.06.88.14,1.3.19a10.65,10.65,0,0,1,3.25,1,13.9,13.9,0,0,0,5.63,1.37,6.34,6.34,0,0,0,3.77-1.08,20.8,20.8,0,0,0,5.75-5.79,38.65,38.65,0,0,0,5-9.58,4.2,4.2,0,0,1,.31-.86c.3-.47,0-.8-1.41-1.52a13.71,13.71,0,0,1-5.85-6,11.66,11.66,0,0,1-1.35-4.64,12.94,12.94,0,0,1,.73-6.57,9.93,9.93,0,0,1,2.2-4,14.71,14.71,0,0,1,3.19-2.87c.78-.47.95-.72.76-1.1A20.06,20.06,0,0,0,157,30.89a16.16,16.16,0,0,0-8.94-4.26A21.48,21.48,0,0,0,144.85,26.48Z" transform="translate(-13.23 -10.57)" style="fill:#fff"/><path d="M239.06,42.92c-4.72,0-9.45-.05-14.17,0-1.65,0-2.15-.57-2.13-2.17q.09-10.08,0-20.15c0-1.47.48-2,2-2.25,9.59-1.37,19.17-2.82,28.75-4.29,1.46-.22,2,.23,2,1.75q-.06,12.5,0,25c0,1.57-.6,2.06-2.09,2.05-4.78-.05-9.57,0-14.36,0Z" transform="translate(-13.23 -10.57)" style="fill:#fff"/><path d="M239.14,45.36c4.73,0,9.46,0,14.18,0,1.58,0,2.21.45,2.19,2.12q-.09,12.23,0,24.44c0,1.69-.57,2.16-2.21,1.92q-14.3-2.05-28.6-4c-1.35-.19-1.95-.68-1.94-2.12.06-6.78.07-13.56,0-20.33,0-1.71.67-2.1,2.22-2.07,4.72.07,9.45,0,14.17,0Z" transform="translate(-13.23 -10.57)" style="fill:#fff"/><path d="M208.14,45.31c3.47,0,7,0,10.42,0,1.43,0,1.82.62,1.81,1.92,0,6.64,0,13.29,0,19.94,0,1.63-.61,2-2.16,1.75q-10.12-1.52-20.28-2.83c-1.69-.22-2.47-.78-2.43-2.67.12-5.4.09-10.81,0-16.21,0-1.65.59-2.18,2.18-2.15,3.48.08,7,0,10.44,0Z" transform="translate(-13.23 -10.57)" style="fill:#fff"/><path d="M207.83,43c-3.48,0-7,0-10.44,0-1.37,0-1.86-.51-1.85-1.86,0-5.6,0-11.19,0-16.78a1.58,1.58,0,0,1,1.57-1.85c7.19-1,14.37-2.14,21.55-3.22,1.21-.18,1.71.33,1.7,1.54,0,6.83,0,13.67,0,20.5,0,1.38-.75,1.64-1.91,1.63-3.54,0-7.09,0-10.63,0Z" transform="translate(-13.23 -10.57)" style="fill:#fff"/></svg>